<svg width="31" height="31" fill="none" xmlns="http://www.w3.org/2000/svg"><g clip-path="url(#clip0)" fill="#000"><path d="M29.575 5.339H1.425C.639 5.339 0 5.978 0 6.764v17.472c0 .786.64 1.425 1.425 1.425h23.297a.454.454 0 100-.908H1.425a.517.517 0 01-.517-.517V6.764c0-.285.232-.517.517-.517h28.15c.285 0 .517.232.517.517v17.472a.517.517 0 01-.517.517h-2.912a.454.454 0 100 .908h2.912c.786 0 1.425-.64 1.425-1.425V6.764c0-.786-.64-1.425-1.425-1.425z"/><path d="M14.044 21.778h2.912a.94.94 0 00.94-.94v-2.943h2.943a.94.94 0 00.94-.939v-2.912a.94.94 0 00-.94-.94h-2.944v-2.943a.94.94 0 00-.939-.94h-2.912a.94.94 0 00-.94.94v.485a.454.454 0 10.909 0v-.485c0-.017.014-.031.03-.031h2.913c.017 0 .031.014.031.031v3.398c0 .25.204.454.454.454h3.398c.017 0 .031.014.031.03v2.913a.031.031 0 01-.031.031H17.44a.454.454 0 00-.454.454v3.398a.031.031 0 01-.03.031h-2.913a.031.031 0 01-.031-.031V17.44a.454.454 0 00-.454-.454H10.16a.031.031 0 01-.031-.031v-2.912c0-.017.014-.031.031-.031h3.398c.25 0 .454-.204.454-.454v-.971a.454.454 0 10-.909 0v.517H10.16a.94.94 0 00-.94.939v2.912c0 .518.422.94.94.94h2.944v2.943c0 .518.42.94.939.94z"/></g><defs><clipPath id="clip0"><path fill="#fff" d="M0 0h31v31H0z"/></clipPath></defs></svg>