<svg width="30" height="30" viewBox="0 0 30 30" fill="none" xmlns="http://www.w3.org/2000/svg">
<g clip-path="url(#clip0)">
<path d="M16.25 21.875C15.5625 21.875 15 21.3125 15 20.625C15 20.4375 15.0375 20.2625 15.1125 20.1L17.5 15L15.1125 9.9C15.0375 9.7375 15 9.5625 15 9.375C15 8.6875 15.5625 8.125 16.25 8.125C16.4375 8.125 16.6 8.1625 16.7625 8.2375L29.2625 13.8625C29.7 14.05 30 14.4875 30 15C30 15.5125 29.7 15.95 29.2625 16.1375L16.7625 21.7625C16.6 21.8375 16.4375 21.875 16.25 21.875Z" fill="#323232"/>
<path d="M0 15C0 7.41875 6.16875 1.25 13.75 1.25C17.9188 1.25 21.805 3.105 24.4112 6.34125C24.8462 6.88 24.7588 7.66625 24.2225 8.09875C23.685 8.53125 22.8975 8.44625 22.465 7.90875C20.335 5.26625 17.16 3.75 13.75 3.75C7.5475 3.75 2.5 8.79625 2.5 15C2.5 21.2038 7.5475 26.25 13.75 26.25C17.16 26.25 20.335 24.7338 22.4638 22.0913C22.8963 21.5525 23.6838 21.4688 24.2213 21.9012C24.7575 22.3363 24.845 23.1225 24.41 23.6588C21.805 26.895 17.9188 28.75 13.75 28.75C6.16875 28.75 0 22.5812 0 15H0Z" fill="#323232"/>
</g>
<defs>
<clipPath id="clip0">
<rect width="30" height="30" fill="white"/>
</clipPath>
</defs>
</svg>
