<svg width="31" height="31" viewBox="0 0 31 31" fill="none" xmlns="http://www.w3.org/2000/svg">
<g clip-path="url(#clip0)">
<path d="M2.72216 15.2777H7.48023V17.3974C7.48023 17.6482 7.68349 17.8515 7.93433 17.8515C8.18518 17.8515 8.38844 17.6482 8.38844 17.3974V14.8236V10.9839C8.38844 10.7332 8.18518 10.5298 7.93433 10.5298H3.58562C3.37322 10.5298 3.18916 10.6771 3.14259 10.8843L2.27914 14.724C2.24886 14.8586 2.28144 14.9996 2.3676 15.1073C2.45375 15.215 2.58423 15.2777 2.72216 15.2777ZM3.94896 11.438H7.48023V14.3695H3.28972L3.94896 11.438Z" fill="black"/>
<path d="M7.78913 21.6299C7.54573 21.6886 7.39558 21.9344 7.45491 22.1778C7.47186 22.2475 7.48034 22.3195 7.48034 22.3922C7.47907 22.8923 7.07165 23.2998 6.57214 23.3004C6.07202 23.2998 5.66454 22.8923 5.66333 22.3922C5.66454 21.8927 6.07202 21.4852 6.57214 21.4846C6.8222 21.4846 7.02563 21.2805 7.02563 21.0305C7.02563 20.7798 6.8222 20.5764 6.57214 20.5764C5.56803 20.5764 4.75634 21.3873 4.75513 22.3922C4.75634 23.397 5.56718 24.2086 6.57214 24.2086C7.57389 24.2086 8.38794 23.399 8.38794 22.3922C8.38794 22.2475 8.37099 22.104 8.33769 21.9647C8.27811 21.719 8.03241 21.5712 7.78913 21.6299Z" fill="black"/>
<path d="M23.333 21.6172C23.2972 21.6172 23.2615 21.6214 23.2258 21.6299C22.9824 21.6886 22.8328 21.9344 22.8916 22.1778C22.9079 22.2481 22.917 22.3201 22.917 22.3928C22.9157 22.8923 22.5083 23.2998 22.0088 23.301C21.5086 23.2998 21.1012 22.8923 21.1006 22.3928C21.1012 21.8927 21.5086 21.4852 22.0088 21.484C22.2588 21.484 22.4629 21.2805 22.4629 21.0305C22.4629 20.7798 22.2588 20.5764 22.0088 20.5764C21.5231 20.5764 21.0673 20.7653 20.7239 21.108C20.3813 21.4513 20.1924 21.9072 20.1924 22.3928C20.1924 22.8778 20.3813 23.3337 20.7239 23.677C21.0673 24.0197 21.5231 24.2086 22.0088 24.2086C22.4938 24.2086 22.9497 24.0197 23.293 23.677C23.6357 23.3337 23.8245 22.8778 23.8245 22.3928C23.8245 22.2475 23.8076 22.1034 23.7743 21.9647C23.7247 21.7601 23.5431 21.6172 23.333 21.6172Z" fill="black"/>
<path d="M30.5459 13.4971H28.5781V11.8673H29.3349C29.5857 11.8673 29.789 11.664 29.789 11.4132C29.789 11.1624 29.5857 10.9591 29.3349 10.9591H28.5781V9.32932H29.9404C30.1912 9.32932 30.3945 9.12601 30.3945 8.87522C30.3945 8.62444 30.1912 8.42112 29.9404 8.42112H28.5781V6.79138H30.5459C30.7967 6.79138 31 6.58806 31 6.33728C31 6.08649 30.7967 5.88318 30.5459 5.88318H28.4991C28.4323 5.69397 28.3249 5.52008 28.1791 5.37428C27.9218 5.11696 27.5797 4.97528 27.2158 4.97467H10.6593C10.2947 4.97528 9.95269 5.11696 9.69598 5.37428C9.43865 5.631 9.29697 5.97309 9.29637 6.33698V8.71344H3.69396C2.62434 8.71344 1.71342 9.4423 1.4788 10.4858L0.791348 13.5425C0.607769 14.3592 0.514648 15.1976 0.514648 16.0345V20.213C0.210643 20.36 0 20.6705 0 21.0303V21.9385C0 22.4392 0.40742 22.8467 0.908203 22.8467H2.96861C3.19294 24.6361 4.72278 26.0254 6.57206 26.0254C8.42134 26.0254 9.95118 24.6361 10.1755 22.8467H18.4052C18.6295 24.6361 20.1593 26.0254 22.0086 26.0254C23.8599 26.0254 25.3911 24.6331 25.6128 22.8408C26.3066 22.7786 26.8524 22.1941 26.8524 21.4844V17.8512H27.2159C27.5798 17.8512 27.9219 17.7096 28.1792 17.4528C28.3249 17.3067 28.4323 17.1327 28.4992 16.9433H29.9404C30.1913 16.9433 30.3945 16.74 30.3945 16.4892C30.3945 16.2385 30.1913 16.0351 29.9404 16.0351H28.5781V14.4053H30.5459C30.7967 14.4053 31 14.202 31 13.9512C31 13.7004 30.7967 13.4971 30.5459 13.4971ZM1.67745 13.7418L2.3649 10.685C2.50567 10.0589 3.05223 9.62158 3.69396 9.62158H9.29637V17.3977C9.29637 17.3996 9.29661 17.4016 9.29667 17.4035V19.9935C8.63047 19.2378 7.65633 18.7597 6.57206 18.7597C5.46914 18.7597 4.42773 19.2651 3.73962 20.122H1.42285V16.0346C1.42285 15.2646 1.50853 14.4932 1.67745 13.7418ZM0.908203 21.0303H3.20481C3.08662 21.3209 3.00724 21.6257 2.96801 21.9385H0.908203V21.0303ZM6.57206 25.1172C5.06971 25.1172 3.84745 23.8949 3.84745 22.3926C3.84745 20.8789 5.08624 19.6679 6.57206 19.6679C8.07441 19.6679 9.29667 20.8902 9.29667 22.3926C9.29667 23.8949 8.07441 25.1172 6.57206 25.1172ZM22.0085 25.1172C20.5062 25.1172 19.2839 23.8949 19.2839 22.3926C19.2839 20.8902 20.5062 19.6679 22.0085 19.6679C23.5109 19.6679 24.7332 20.8902 24.7332 22.3926C24.7332 23.8949 23.511 25.1172 22.0085 25.1172ZM27.2158 16.9436H11.5675C11.3168 16.9436 11.1128 17.147 11.1128 17.3977C11.1128 17.6477 11.3168 17.8512 11.5669 17.8512H25.9442V21.4843C25.9442 21.6932 25.8022 21.8691 25.6099 21.9219C25.3782 20.1404 23.8521 18.7597 22.0086 18.7597C20.1594 18.7597 18.6295 20.1489 18.4052 21.9384H10.2049V17.3974H10.2046V6.33698C10.2052 6.08752 10.4092 5.88348 10.6593 5.88287H27.2158C27.4653 5.88348 27.6683 6.08667 27.6699 6.3354C27.6699 6.33601 27.6698 6.33661 27.6698 6.33728C27.6698 6.33849 27.67 6.33958 27.67 6.34079V8.87171C27.67 8.87292 27.6698 8.87407 27.6698 8.87522C27.6698 8.87637 27.67 8.87752 27.67 8.87873V11.4097C27.67 11.4109 27.6698 11.4121 27.6698 11.4132C27.6698 11.4144 27.67 11.4155 27.67 11.4167V13.9477C27.67 13.9489 27.6698 13.9501 27.6698 13.9512C27.6698 13.9524 27.67 13.9535 27.67 13.9547V16.4857C27.67 16.4869 27.6698 16.488 27.6698 16.4892C27.6698 16.4897 27.6699 16.4902 27.6699 16.4907C27.6682 16.74 27.4653 16.943 27.2158 16.9436Z" fill="black"/>
</g>
<defs>
<clipPath id="clip0">
<rect width="31" height="31" fill="white"/>
</clipPath>
</defs>
</svg>
