<svg width="31" height="31" viewBox="0 0 31 31" fill="none" xmlns="http://www.w3.org/2000/svg">
<g clip-path="url(#clip0)">
<path d="M29.5752 5.33884H1.42479C0.639193 5.33884 0 5.97803 0 6.76363V24.2363C0 25.022 0.639193 25.6611 1.42479 25.6611H24.7218C24.9726 25.6611 25.1759 25.4578 25.1759 25.207C25.1759 24.9562 24.9726 24.7529 24.7218 24.7529H1.42479C1.13992 24.7529 0.908203 24.5211 0.908203 24.2363V6.76363C0.908203 6.47875 1.13998 6.24704 1.42479 6.24704H29.5752C29.8601 6.24704 30.0918 6.47881 30.0918 6.76363V24.2363C30.0918 24.5212 29.86 24.7529 29.5752 24.7529H26.6629C26.4121 24.7529 26.2088 24.9562 26.2088 25.207C26.2088 25.4578 26.4121 25.6611 26.6629 25.6611H29.5752C30.3609 25.6611 31 25.0219 31 24.2363V6.76363C31 5.97803 30.3608 5.33884 29.5752 5.33884Z" fill="black"/>
<path d="M14.0439 21.7783H16.9561C17.4741 21.7783 17.8955 21.3569 17.8955 20.8388V17.8955H20.8389C21.3569 17.8955 21.7783 17.4741 21.7783 16.956V14.0439C21.7783 13.5259 21.3569 13.1045 20.8389 13.1045H17.8955V10.1611C17.8955 9.64306 17.4741 9.22165 16.9561 9.22165H14.0439C13.5259 9.22165 13.1045 9.64306 13.1045 10.1611V10.6464C13.1045 10.8972 13.3078 11.1005 13.5586 11.1005C13.8094 11.1005 14.0127 10.8972 14.0127 10.6464V10.1611C14.0127 10.1438 14.0267 10.1299 14.0439 10.1299H16.9561C16.9733 10.1299 16.9873 10.1438 16.9873 10.1611V13.5586C16.9873 13.8093 17.1906 14.0127 17.4414 14.0127H20.8389C20.8561 14.0127 20.8701 14.0266 20.8701 14.0439V16.956C20.8701 16.9733 20.8561 16.9873 20.8389 16.9873H17.4414C17.1906 16.9873 16.9873 17.1906 16.9873 17.4414V20.8388C16.9873 20.8561 16.9733 20.8701 16.9561 20.8701H14.0439C14.0267 20.8701 14.0127 20.8561 14.0127 20.8388V17.4414C14.0127 17.1906 13.8094 16.9873 13.5586 16.9873H10.1611C10.1439 16.9873 10.1299 16.9733 10.1299 16.956V14.0439C10.1299 14.0266 10.1439 14.0127 10.1611 14.0127H13.5586C13.8094 14.0127 14.0127 13.8093 14.0127 13.5586V12.5879C14.0127 12.3371 13.8094 12.1338 13.5586 12.1338C13.3078 12.1338 13.1045 12.3371 13.1045 12.5879V13.1045H10.1611C9.64309 13.1045 9.22168 13.5259 9.22168 14.0439V16.956C9.22168 17.4741 9.64309 17.8955 10.1611 17.8955H13.1045V20.8388C13.1045 21.3569 13.5259 21.7783 14.0439 21.7783Z" fill="black"/>
</g>
<defs>
<clipPath id="clip0">
<rect width="31" height="31" fill="white"/>
</clipPath>
</defs>
</svg>
