<svg width="31" height="31" viewBox="0 0 31 31" fill="none" xmlns="http://www.w3.org/2000/svg">
<path d="M18.3003 2.72764C18.2924 2.68889 18.2809 2.65074 18.2657 2.61442C18.2506 2.57748 18.2318 2.54237 18.21 2.50967C18.1876 2.47637 18.1628 2.44549 18.1344 2.41764C18.1065 2.38979 18.0756 2.36436 18.0423 2.34256C18.0096 2.32076 17.9745 2.30199 17.9381 2.28686C17.9019 2.27172 17.8637 2.25961 17.8249 2.25235C17.7468 2.2366 17.6663 2.2366 17.5882 2.25235C17.5494 2.25961 17.5113 2.27172 17.475 2.28686C17.4387 2.30199 17.4036 2.32076 17.3703 2.34256C17.3375 2.36436 17.3061 2.38979 17.2782 2.41764C17.2504 2.44549 17.225 2.47637 17.2032 2.50967C17.1814 2.54237 17.1626 2.57748 17.1475 2.61442C17.1323 2.65074 17.1208 2.68889 17.1129 2.72764C17.1051 2.76639 17.1008 2.80635 17.1008 2.84571C17.1008 2.88506 17.1051 2.92502 17.1129 2.96377C17.1208 3.00252 17.1323 3.04067 17.1475 3.0776C17.1626 3.11393 17.1814 3.14905 17.2032 3.18174C17.225 3.21504 17.2504 3.24592 17.2782 3.27377C17.3061 3.30162 17.3376 3.32705 17.3703 3.34885C17.4035 3.37065 17.4386 3.38942 17.475 3.40455C17.5113 3.41969 17.5494 3.4318 17.5882 3.43906C17.6269 3.44694 17.6669 3.45117 17.7062 3.45117C17.7463 3.45117 17.7856 3.44694 17.8249 3.43906C17.8637 3.4318 17.9018 3.41969 17.9381 3.40455C17.9745 3.38942 18.0096 3.37065 18.0423 3.34885C18.0756 3.32705 18.1065 3.30162 18.1344 3.27377C18.1628 3.24592 18.1876 3.21504 18.21 3.18174C18.2318 3.14905 18.2506 3.11393 18.2657 3.0776C18.2809 3.04067 18.2924 3.00252 18.3003 2.96377C18.3081 2.92502 18.3117 2.88506 18.3117 2.84571C18.3117 2.80635 18.3081 2.76639 18.3003 2.72764Z" fill="black"/>
<path d="M11.889 28.0362C11.8811 27.9975 11.8696 27.9593 11.8545 27.923C11.8394 27.8861 11.8206 27.851 11.7988 27.8183C11.777 27.785 11.7516 27.7541 11.7237 27.7262C11.6959 27.6984 11.6644 27.673 11.6317 27.6512C11.5984 27.6294 11.5633 27.6106 11.5269 27.5954C11.4906 27.5803 11.4525 27.5682 11.4137 27.5603C11.3356 27.5452 11.2551 27.5452 11.177 27.5603C11.1382 27.5682 11.1001 27.5803 11.0638 27.5954C11.0274 27.6106 10.9923 27.6294 10.9596 27.6512C10.9263 27.673 10.8954 27.6984 10.8676 27.7262C10.8391 27.7541 10.8143 27.785 10.7919 27.8183C10.7701 27.851 10.7513 27.8861 10.7362 27.923C10.7211 27.9593 10.7096 27.9975 10.7017 28.0362C10.6938 28.075 10.6902 28.1149 10.6902 28.1543C10.6902 28.1937 10.6938 28.2336 10.7017 28.2724C10.7096 28.3111 10.7211 28.3493 10.7362 28.3856C10.7513 28.4225 10.7701 28.4576 10.7919 28.4903C10.8143 28.5236 10.8391 28.5545 10.8676 28.5824C10.8954 28.6102 10.9263 28.6356 10.9596 28.6574C10.9923 28.6792 11.0274 28.698 11.0638 28.7131C11.1001 28.7283 11.1382 28.7404 11.177 28.7477C11.2163 28.7555 11.2563 28.7598 11.2957 28.7598C11.4549 28.7598 11.6111 28.695 11.7237 28.5824C11.8363 28.4697 11.9011 28.3135 11.9011 28.1543C11.9011 28.1149 11.8969 28.075 11.889 28.0362Z" fill="black"/>
<path d="M16.8548 14.8945H15.1064V11.9435C15.1064 11.6091 14.8354 11.3381 14.501 11.3381C14.1666 11.3381 13.8955 11.6091 13.8955 11.9435V15.5C13.8955 15.8344 14.1666 16.1055 14.501 16.1055H16.8548C17.1891 16.1055 17.4603 15.8344 17.4603 15.5C17.4603 15.1656 17.1891 14.8945 16.8548 14.8945Z" fill="black"/>
<path d="M26.126 13.4311H24.5232C24.4129 12.8964 24.2608 12.3767 24.0705 11.8757L25.6616 10.8608C25.797 10.7744 25.8924 10.6378 25.9272 10.481C25.9618 10.3242 25.9328 10.1601 25.8464 10.0247L24.6326 8.12188C24.5462 7.9865 24.4096 7.89095 24.2528 7.85632C24.0963 7.82157 23.9319 7.85069 23.7966 7.93703L22.3049 8.88864C21.9557 8.47705 21.5745 8.09336 21.1654 7.7414L20.4619 0.546557C20.4317 0.236436 20.1709 0 19.8594 0H9.14258C8.831 0 8.57029 0.236436 8.53996 0.546557L7.83658 7.74146C5.65332 9.61945 4.26855 12.401 4.26855 15.5C4.26855 18.599 5.65332 21.3806 7.83658 23.2585L8.53996 30.4534C8.57029 30.7636 8.831 31 9.14258 31H19.8594C20.1709 31 20.4317 30.7636 20.4619 30.4534L21.1653 23.2585C23.0143 21.6681 24.2906 19.4296 24.638 16.899H26.126C26.4603 16.899 26.7314 16.6279 26.7314 16.2935V14.0366C26.7314 13.7022 26.4603 13.4311 26.126 13.4311ZM9.47274 3.45117H15.4663C15.8007 3.45117 16.0718 3.1801 16.0718 2.8457C16.0718 2.5113 15.8007 2.24023 15.4663 2.24023H9.59111L9.69174 1.21094H19.3102L19.855 6.78301C18.2965 5.82225 16.4623 5.26758 14.501 5.26758C12.5397 5.26758 10.7055 5.82225 9.147 6.78295L9.47274 3.45117ZM19.5292 27.5488H13.5356C13.2012 27.5488 12.9301 27.8199 12.9301 28.1543C12.9301 28.4887 13.2012 28.7598 13.5356 28.7598H19.4108L19.3102 29.7891H9.69174L9.147 24.2171C10.7055 25.1778 12.5397 25.7324 14.501 25.7324C16.4623 25.7324 18.2965 25.1778 19.855 24.217L19.5292 27.5488ZM14.501 24.5215C9.52651 24.5215 5.47949 20.4745 5.47949 15.5C5.47949 10.5255 9.52651 6.47852 14.501 6.47852C19.4754 6.47852 23.5225 10.5255 23.5225 15.5C23.5225 20.4745 19.4754 24.5215 14.501 24.5215ZM23.0347 9.85939L23.9373 9.28359L24.4999 10.1655L23.5679 10.76C23.4052 10.4501 23.2272 10.1496 23.0347 9.85939ZM25.5205 15.6881H24.7316C24.7328 15.6255 24.7334 15.5628 24.7334 15.5C24.7334 15.2111 24.7213 14.925 24.6977 14.6421H25.5205V15.6881Z" fill="black"/>
<path d="M14.5009 7.77576C10.2417 7.77576 6.77661 11.2409 6.77661 15.5C6.77661 19.7592 10.2417 23.2243 14.5009 23.2243C18.76 23.2243 22.2251 19.7592 22.2251 15.5C22.2251 11.2409 18.76 7.77576 14.5009 7.77576ZM15.1063 21.9854V21.6128C15.1063 21.2784 14.8353 21.0073 14.5009 21.0073C14.1665 21.0073 13.8954 21.2784 13.8954 21.6128V21.9854C10.7861 21.6975 8.30342 19.2148 8.01546 16.1055H8.38813C8.72253 16.1055 8.99359 15.8344 8.99359 15.5C8.99359 15.1656 8.72253 14.8945 8.38813 14.8945H8.01546C8.30342 11.7852 10.7861 9.30257 13.8954 9.0146V9.38727C13.8954 9.72167 14.1665 9.99274 14.5009 9.99274C14.8353 9.99274 15.1063 9.72167 15.1063 9.38727V9.0146C18.2157 9.30251 20.6983 11.7852 20.9863 14.8945H20.6136C20.2793 14.8945 20.0081 15.1656 20.0081 15.5C20.0081 15.8344 20.2793 16.1055 20.6136 16.1055H20.9863C20.6983 19.2148 18.2157 21.6975 15.1063 21.9854Z" fill="black"/>
</svg>
