<svg width="30" height="30" viewBox="0 0 30 30" fill="none" xmlns="http://www.w3.org/2000/svg">
<g clip-path="url(#clip0)">
<path d="M1.87513 2.04125C-0.482373 4.49 0.000127003 7.09125 0.000127003 14.9937C0.000127003 21.5562 -1.14487 28.135 4.84763 29.6837C6.71888 30.165 23.2989 30.165 25.1676 29.6812C27.6626 29.0375 29.6926 27.0137 29.9701 23.485C30.0089 22.9925 30.0089 7.00375 29.9689 6.50125C29.6739 2.7425 27.3601 0.576247 24.3114 0.137497C23.6126 0.036247 23.4726 0.00624696 19.8876 -3.03611e-06C7.17138 0.00624696 4.38388 -0.560003 1.87513 2.04125Z" fill="url(#paint0_linear)"/>
<path d="M14.9975 3.92378C10.4588 3.92378 6.14876 3.52003 4.50251 7.74503C3.82251 9.49003 3.92126 11.7563 3.92126 15.0013C3.92126 17.8488 3.83001 20.525 4.50251 22.2563C6.14501 26.4838 10.49 26.0788 14.995 26.0788C19.3413 26.0788 23.8225 26.5313 25.4888 22.2563C26.17 20.4938 26.07 18.2613 26.07 15.0013C26.07 10.6738 26.3088 7.88003 24.21 5.78253C22.085 3.65753 19.2113 3.92378 14.9925 3.92378H14.9975ZM14.005 5.92003C23.4725 5.90503 24.6775 4.85253 24.0125 19.4738C23.7763 24.645 19.8388 24.0775 14.9988 24.0775C6.17376 24.0775 5.92001 23.825 5.92001 14.9963C5.92001 6.06503 6.62001 5.92503 14.005 5.91753V5.92003ZM20.91 7.75878C20.1763 7.75878 19.5813 8.35378 19.5813 9.08753C19.5813 9.82128 20.1763 10.4163 20.91 10.4163C21.6438 10.4163 22.2388 9.82128 22.2388 9.08753C22.2388 8.35378 21.6438 7.75878 20.91 7.75878ZM14.9975 9.31253C11.8563 9.31253 9.31001 11.86 9.31001 15.0013C9.31001 18.1425 11.8563 20.6888 14.9975 20.6888C18.1388 20.6888 20.6838 18.1425 20.6838 15.0013C20.6838 11.86 18.1388 9.31253 14.9975 9.31253ZM14.9975 11.3088C19.8788 11.3088 19.885 18.6938 14.9975 18.6938C10.1175 18.6938 10.11 11.3088 14.9975 11.3088Z" fill="white"/>
</g>
<defs>
<linearGradient id="paint0_linear" x1="1.93265" y1="28.0839" x2="29.8145" y2="3.95247" gradientUnits="userSpaceOnUse">
<stop stop-color="#FFDD55"/>
<stop offset="0.5" stop-color="#FF543E"/>
<stop offset="1" stop-color="#C837AB"/>
</linearGradient>
<clipPath id="clip0">
<rect width="30" height="30" fill="white"/>
</clipPath>
</defs>
</svg>
