<svg width="30" height="30" viewBox="0 0 30 30" fill="none" xmlns="http://www.w3.org/2000/svg">
<path d="M28.6475 16.5771C28.717 15.9991 28.75 15.4932 28.75 15C28.75 7.41821 22.5818 1.25 15 1.25C14.5129 1.25 14.0076 1.28296 13.4229 1.35254C12.0251 0.466919 10.4138 0 8.75 0C3.92578 0 0 3.92517 0 8.75C0 10.4144 0.467529 12.0251 1.35254 13.4229C1.28296 14.0009 1.25 14.5068 1.25 15C1.25 22.5818 7.41821 28.75 15 28.75C15.4871 28.75 15.9924 28.717 16.5771 28.6475C17.9749 29.5331 19.5862 30 21.25 30C26.0742 30 30 26.0748 30 21.25C30 19.5856 29.5325 17.9749 28.6475 16.5771Z" fill="#19BEF0"/>
<path opacity="0.1" d="M21.25 29.6875C19.5862 29.6875 17.9749 29.2206 16.5771 28.335C15.9924 28.4045 15.4871 28.4375 15 28.4375C7.46002 28.4375 1.32378 22.3357 1.25626 14.8114C1.25526 14.8734 1.25 14.9385 1.25 15C1.25 22.5818 7.41821 28.75 15 28.75C15.4871 28.75 15.9924 28.717 16.5771 28.6475C17.9749 29.5331 19.5862 30 21.25 30C26.0742 30 30 26.0748 30 21.25C30 21.206 29.9915 21.1631 29.9908 21.1192C29.8927 25.8596 26.0129 29.6875 21.25 29.6875Z" fill="#010101"/>
<path opacity="0.2" d="M8.75 0.3125C10.4138 0.3125 12.0251 0.779419 13.4229 1.66504C14.0076 1.59546 14.5129 1.5625 15 1.5625C22.54 1.5625 28.6762 7.66434 28.7437 15.1886C28.7447 15.1266 28.75 15.0615 28.75 15C28.75 7.41821 22.5818 1.25 15 1.25C14.5129 1.25 14.0076 1.28296 13.4229 1.35254C12.0251 0.466919 10.4138 0 8.75 0C3.92578 0 0 3.92517 0 8.75C0 8.79402 0.00854488 8.8369 0.00923163 8.88084C0.107269 4.1404 3.98712 0.3125 8.75 0.3125Z" fill="white"/>
<path d="M15.3174 12.641C11.9727 11.7419 11.25 11.2732 11.25 10C11.25 9.61792 12.4304 8.75 14.375 8.75C16.1389 8.75 17.2229 9.29443 17.5085 9.54895C17.5964 10.5017 18.3997 11.25 19.375 11.25C20.4089 11.25 21.25 10.4089 21.25 9.375C21.25 6.8811 18.2947 5 14.375 5C10.52 5 7.5 7.19604 7.5 10C7.5 14.4232 11.4551 15.4858 14.3445 16.2628C17.9675 17.2357 18.75 17.7881 18.75 19.375C18.75 20.1398 17.2888 21.25 15 21.25C12.4731 21.25 11.3037 20.3815 11.2415 20.0189C11.0583 18.9612 10.3088 18.2501 9.375 18.2501C8.34106 18.2501 7.5 19.0912 7.5 20.1251C7.5 22.9041 10.7239 25 15 25C19.2053 25 22.5 22.5293 22.5 19.375C22.5 14.5703 18.1775 13.4094 15.3174 12.641Z" fill="white"/>
<path d="M28.6474 16.5772C28.6926 16.2018 28.717 15.8614 28.7323 15.5306L20.166 6.96436C20.8507 7.6478 21.25 8.46895 21.25 9.37502C21.25 10.409 20.4089 11.25 19.375 11.25C18.3996 11.25 17.5964 10.5017 17.5085 9.54897C17.2229 9.29445 16.1389 8.75002 14.375 8.75002C12.4304 8.75002 11.25 9.61793 11.25 10C11.25 11.2732 11.9726 11.742 15.3173 12.641C18.1774 13.4094 22.5 14.5703 22.5 19.375C22.5 22.5293 19.2053 25 15 25C12.6075 25 10.5457 24.3433 9.19238 23.2785L14.6459 28.7321C14.7647 28.7351 14.8805 28.75 15 28.75C15.487 28.75 15.9924 28.7171 16.5771 28.6475C17.9748 29.5331 19.5861 30 21.25 30C26.0742 30 30 26.0748 30 21.25C30 19.5856 29.5324 17.9749 28.6474 16.5772Z" fill="url(#paint0_linear)"/>
<path d="M28.6475 16.5771C28.717 15.9991 28.75 15.4932 28.75 15C28.75 7.41821 22.5818 1.25 15 1.25C14.5129 1.25 14.0076 1.28296 13.4229 1.35254C12.0251 0.466919 10.4138 0 8.75 0C3.92578 0 0 3.92517 0 8.75C0 10.4144 0.467529 12.0251 1.35254 13.4229C1.28296 14.0009 1.25 14.5068 1.25 15C1.25 22.5818 7.41821 28.75 15 28.75C15.4871 28.75 15.9924 28.717 16.5771 28.6475C17.9749 29.5331 19.5862 30 21.25 30C26.0742 30 30 26.0748 30 21.25C30 19.5856 29.5325 17.9749 28.6475 16.5771Z" fill="url(#paint1_linear)"/>
<defs>
<linearGradient id="paint0_linear" x1="10.3328" y1="10.775" x2="27.2131" y2="27.6553" gradientUnits="userSpaceOnUse">
<stop stop-color="#010101" stop-opacity="0.1"/>
<stop offset="1" stop-color="#010101" stop-opacity="0"/>
</linearGradient>
<linearGradient id="paint1_linear" x1="-0.457311" y1="7.79214" x2="30.4573" y2="22.2079" gradientUnits="userSpaceOnUse">
<stop stop-color="white" stop-opacity="0.2"/>
<stop offset="1" stop-color="white" stop-opacity="0"/>
</linearGradient>
</defs>
</svg>
